<svg width="86" height="41" viewBox="0 0 86 41" fill="none" xmlns="http://www.w3.org/2000/svg">
<g clip-path="url(#clip0_10176_6423)">
<path d="M47.0218 13.4123C46.6823 13.0867 46.5125 12.6813 46.5125 12.1963C46.5125 11.7112 46.6823 11.3062 47.0218 10.9805C47.3614 10.6549 47.7875 10.4919 48.3007 10.4919C48.8139 10.4919 49.24 10.6549 49.5795 10.9805C49.9191 11.3061 50.0889 11.7115 50.0889 12.1963C50.0889 12.681 49.9191 13.0867 49.5795 13.4123C49.24 13.7382 48.8136 13.9008 48.3007 13.9008C47.7878 13.9008 47.3614 13.7382 47.0218 13.4123ZM49.7355 15.2729V26.7885H46.8244V15.2729H49.7355Z" fill="#2F2E2C"/>
<path d="M55.2669 24.3982H60.403V26.7884H51.9604V24.4396L56.9927 17.6632H51.9814V15.2729H60.3406V17.6217L55.2669 24.3982Z" fill="#2F2E2C"/>
<path d="M65.3104 24.3982H70.4464V26.7884H62.0039V24.4396L67.0361 17.6632H62.0248V15.2729H70.3841V17.6217L65.3104 24.3982Z" fill="#2F2E2C"/>
<path d="M75.3536 24.3982H80.4897V26.7884H72.0471V24.4396L77.0794 17.6632H72.068V15.2729H80.4273V17.6217L75.3536 24.3982Z" fill="#2F2E2C"/>
<path d="M82.9327 13.4123C82.5932 13.0867 82.4233 12.6813 82.4233 12.1963C82.4233 11.7113 82.5932 11.3062 82.9327 10.9805C83.2723 10.6549 83.6984 10.492 84.2116 10.492C84.7248 10.492 85.1509 10.6549 85.4904 10.9805C85.83 11.3061 85.9998 11.7115 85.9998 12.1963C85.9998 12.6811 85.83 13.0867 85.4904 13.4123C85.1509 13.7383 84.7245 13.9009 84.2116 13.9009C83.6987 13.9009 83.2723 13.7383 82.9327 13.4123ZM85.6464 15.2729V26.7886H82.7353V15.2729H85.6464Z" fill="#2F2E2C"/>
<path d="M20.4112 40.8069C31.684 40.8069 40.8224 31.672 40.8224 20.4034C40.8224 9.1349 31.684 -6.10352e-05 20.4112 -6.10352e-05C9.1384 -6.10352e-05 0 9.1349 0 20.4034C0 31.672 9.1384 40.8069 20.4112 40.8069Z" fill="#2F2E2C"/>
<path d="M29.2116 22.0753C29.7686 23.0398 29.438 24.2732 28.4732 24.8302L19.447 30.0395C19.1292 30.2229 18.7824 30.3099 18.4402 30.3099C17.7429 30.3099 17.0647 29.9483 16.6911 29.3013C16.4631 28.9066 16.3838 28.4668 16.4358 28.0468C16.4564 27.8228 16.3926 27.4734 16.1512 27.3126C15.8069 27.0831 15.3968 27.1772 15.1706 27.3237C14.9444 27.4702 14.5011 27.6224 14.1134 27.6224C13.5562 27.6224 13.0519 27.3967 12.6869 27.0318C12.3217 26.6669 12.0959 26.1626 12.0959 25.6058V15.1871C12.0959 14.0734 12.9991 13.1705 14.1134 13.1705C14.5003 13.1705 14.8617 13.2793 15.1687 13.4681C15.3854 13.6159 15.8301 13.7149 16.1512 13.4881C16.3994 13.3128 16.469 13.0114 16.4357 12.7596C16.3838 12.3398 16.4632 11.9003 16.6911 11.5057C17.0647 10.8587 17.7428 10.497 18.44 10.497C18.7824 10.497 19.1292 10.5841 19.447 10.7675L28.4732 15.9768C29.438 16.5336 29.7686 17.767 29.2116 18.7317C28.8379 19.3787 28.1597 19.7403 27.4624 19.7403C27.1202 19.7403 26.7734 19.6532 26.4557 19.4699C26.4557 19.4699 17.5042 14.3056 17.4338 14.2631C17.2249 14.1449 16.8195 13.969 16.4752 14.1985C16.1764 14.3976 16.1288 14.6613 16.1308 15.1871C16.1288 15.5178 16.1308 25.6058 16.1308 25.6058C16.1036 26.0218 16.1725 26.4006 16.4752 26.6023C16.8195 26.8317 17.2501 26.6515 17.4296 26.5465C17.5523 26.4747 26.4557 21.3372 26.4557 21.3372C26.7734 21.1538 27.1202 21.0667 27.4624 21.0667C28.1597 21.0667 28.8379 21.4283 29.2116 22.0753Z" fill="white"/>
</g>
<defs>
<clipPath id="clip0_10176_6423">
<rect width="86" height="41" fill="white"/>
</clipPath>
</defs>
</svg>
