<svg width="133" height="62" viewBox="0 0 133 62" fill="none" xmlns="http://www.w3.org/2000/svg">
<rect width="133" height="62.0001" fill="#F26103"/>
<path d="M71.0797 20.2821C70.5664 19.7898 70.3097 19.1767 70.3097 18.4432C70.3097 17.7098 70.5664 17.0973 71.0797 16.6048C71.593 16.1124 72.2371 15.866 73.0128 15.866C73.7886 15.866 74.4327 16.1124 74.946 16.6048C75.4592 17.0971 75.716 17.7102 75.716 18.4432C75.716 19.1763 75.4592 19.7898 74.946 20.2821C74.4327 20.775 73.7882 21.0209 73.0128 21.0209C72.2375 21.0209 71.593 20.775 71.0797 20.2821ZM75.1818 23.0957V40.5096H70.7812V23.0957H75.1818Z" fill="white"/>
<path d="M83.543 36.8949H91.3068V40.5094H78.5448V36.9576L86.1517 26.7102H78.5765V23.0957H91.2126V26.6475L83.543 36.8949Z" fill="white"/>
<path d="M98.725 36.8949H106.489V40.5094H93.7268V36.9576L101.334 26.7102H93.7584V23.0957H106.394V26.6475L98.725 36.8949Z" fill="white"/>
<path d="M113.907 36.8949H121.671V40.5094H108.909V36.9576L116.515 26.7102H108.94V23.0957H121.576V26.6475L113.907 36.8949Z" fill="white"/>
<path d="M125.364 20.2821C124.85 19.7898 124.594 19.1767 124.594 18.4432C124.594 17.7098 124.85 17.0973 125.364 16.6048C125.877 16.1124 126.521 15.866 127.297 15.866C128.073 15.866 128.717 16.1124 129.23 16.6048C129.743 17.0971 130 17.7102 130 18.4432C130 19.1763 129.743 19.7898 129.23 20.2821C128.717 20.775 128.072 21.0209 127.297 21.0209C126.521 21.0209 125.877 20.775 125.364 20.2821ZM129.466 23.0957V40.5096H125.065V23.0957H129.466Z" fill="white"/>
<path d="M30.8541 61.7082C47.8944 61.7082 61.7082 47.8944 61.7082 30.8541C61.7082 13.8139 47.8944 0 30.8541 0C13.8139 0 0 13.8139 0 30.8541C0 47.8944 13.8139 61.7082 30.8541 61.7082Z" fill="white"/>
<path d="M44.1572 33.3823C44.9992 34.8408 44.4994 36.706 43.0409 37.5482L29.3967 45.4257C28.9164 45.703 28.3921 45.8346 27.8748 45.8346C26.8208 45.8346 25.7956 45.2878 25.2309 44.3094C24.8861 43.7125 24.7663 43.0474 24.845 42.4123C24.876 42.0736 24.7797 41.5453 24.4147 41.3021C23.8942 40.9551 23.2743 41.0973 22.9324 41.3188C22.5905 41.5403 21.9203 41.7706 21.3343 41.7706C20.4921 41.7706 19.7297 41.4293 19.1779 40.8774C18.626 40.3256 18.2847 39.563 18.2847 38.721V22.966C18.2847 21.2818 19.6499 19.9164 21.3343 19.9164C21.9192 19.9164 22.4654 20.0809 22.9296 20.3664C23.2571 20.59 23.9293 20.7397 24.4147 20.3967C24.79 20.1316 24.8951 19.6758 24.8448 19.2951C24.7663 18.6603 24.8863 17.9956 25.2309 17.3989C25.7956 16.4205 26.8206 15.8735 27.8746 15.8735C28.3921 15.8735 28.9164 16.0053 29.3967 16.2826L43.0409 24.1602C44.4994 25.0022 44.9992 26.8673 44.1572 28.326C43.5923 29.3044 42.5671 29.8512 41.5131 29.8512C40.9958 29.8512 40.4715 29.7196 39.9913 29.4423C39.9913 29.4423 26.4599 21.633 26.3536 21.5686C26.0378 21.3899 25.4249 21.1239 24.9044 21.4709C24.4528 21.772 24.3808 22.1708 24.3839 22.966C24.3808 23.4659 24.3839 38.721 24.3839 38.721C24.3428 39.3501 24.4469 39.923 24.9044 40.2279C25.4249 40.5749 26.0759 40.3024 26.3471 40.1435C26.5326 40.035 39.9913 32.266 39.9913 32.266C40.4715 31.9887 40.9958 31.8571 41.5131 31.8571C42.5671 31.8571 43.5923 32.4039 44.1572 33.3823Z" fill="#F26103"/>
</svg>

